<svg xmlns="http://www.w3.org/2000/svg" viewBox="0 0 128 128" role="img" aria-labelledby="title desc">
  <title id="title">Natural Intelligence Studio brand mark</title>
  <desc id="desc">A rounded teal, blue, yellow, and coral abstract app studio mark.</desc>
  <defs>
    <linearGradient id="bg" x1="18" x2="110" y1="12" y2="116" gradientUnits="userSpaceOnUse">
      <stop stop-color="#e8fff8"/>
      <stop offset="0.55" stop-color="#d8f0ff"/>
      <stop offset="1" stop-color="#fff0c7"/>
    </linearGradient>
    <linearGradient id="leaf" x1="35" x2="92" y1="82" y2="34" gradientUnits="userSpaceOnUse">
      <stop stop-color="#00796b"/>
      <stop offset="1" stop-color="#35c6a4"/>
    </linearGradient>
  </defs>
  <rect x="8" y="8" width="112" height="112" rx="28" fill="url(#bg)"/>
  <rect x="8" y="8" width="112" height="112" rx="28" fill="none" stroke="#ffffff" stroke-width="4" opacity="0.72"/>
  <path d="M38 76c2-24 19-40 48-46 3 28-8 50-31 60-9 4-16-3-17-14Z" fill="url(#leaf)"/>
  <path d="M47 77c13-6 24-16 33-31" fill="none" stroke="#eafff8" stroke-width="5" stroke-linecap="round"/>
  <circle cx="84" cy="35" r="8" fill="#f4b942"/>
  <circle cx="34" cy="78" r="7" fill="#2386d1"/>
  <circle cx="55" cy="94" r="6" fill="#e85d75"/>
  <path d="M84 43 61 88M34 78l21 16" fill="none" stroke="#1f2933" stroke-width="4" stroke-linecap="round" opacity="0.18"/>
  <rect x="78" y="72" width="22" height="22" rx="7" fill="#6e56cf" opacity="0.92"/>
  <rect x="28" y="31" width="18" height="18" rx="6" fill="#2386d1" opacity="0.92"/>
  <path d="M99 32h8M103 28v8M25 94h8M29 90v8" stroke="#f4b942" stroke-width="4" stroke-linecap="round"/>
</svg>